HIERARCHY
ROOT hip
{
  OFFSET 0 0 0
  CHANNELS 6 Xposition Yposition Zposition Zrotation Yrotation Xrotation
  JOINT abdomen
  {
    OFFSET 0 20.6881 -0.73152
    CHANNELS 3 Zrotation Xrotation Yrotation
    JOINT chest
    {
      OFFSET 0 11.7043 -0.48768
      CHANNELS 3 Zrotation Xrotation Yrotation
      JOINT neck
      {
        OFFSET 0 22.1894 -2.19456
        CHANNELS 3 Zrotation Xrotation Yrotation
        JOINT head
        {
          OFFSET -0.24384 7.07133 1.2192
          CHANNELS 3 Zrotation Xrotation Yrotation
          JOINT leftEye
          {
            OFFSET 4.14528 8.04674 8.04672
            CHANNELS 3 Zrotation Xrotation Yrotation
            End Site
            {
              OFFSET 1 0 0
            }
          }
          JOINT rightEye
          {
            OFFSET -3.6576 8.04674 8.04672
            CHANNELS 3 Zrotation Xrotation Yrotation
            End Site
            {
              OFFSET 1 0 0
            }
          }
        }
      }
      JOINT rCollar
      {
        OFFSET -2.68224 19.2634 -4.8768
        CHANNELS 3 Zrotation Xrotation Yrotation
        JOINT rShldr
        {
          OFFSET -8.77824 -1.95073 1.46304
          CHANNELS 3 Zrotation Xrotation Yrotation
          JOINT rForeArm
          {
            OFFSET -28.1742 -1.7115 0.48768
            CHANNELS 3 Zrotation Xrotation Yrotation
            JOINT rHand
            {
              OFFSET -22.5879 0.773209 7.07136
              CHANNELS 3 Zrotation Xrotation Yrotation
              JOINT rThumb1
              {
                OFFSET -1.2192 -0.487915 3.41376
                CHANNELS 3 Zrotation Xrotation Yrotation
                JOINT rThumb2
                {
                  OFFSET -3.37035 -0.52449 3.41376
                  CHANNELS 3 Zrotation Xrotation Yrotation
                  End Site
                  {
                    OFFSET -1.78271 -1.18214 1.43049
                  }
                }
              }
              JOINT rIndex1
              {
                OFFSET -7.75947 0.938293 5.60832
                CHANNELS 3 Zrotation Xrotation Yrotation
                JOINT rIndex2
                {
                  OFFSET -2.54057 -0.884171 1.56538
                  CHANNELS 3 Zrotation Xrotation Yrotation
                  End Site
                  {
                    OFFSET -1.62519 -0.234802 1.16502
                  }
                }
              }
              JOINT rMid1
              {
                OFFSET -8.24714 1.18213 3.41376
                CHANNELS 3 Zrotation Xrotation Yrotation
                JOINT rMid2
                {
                  OFFSET -3.10165 -0.590103 1.0647
                  CHANNELS 3 Zrotation Xrotation Yrotation
                  End Site
                  {
                    OFFSET -2.48547 -0.328903 0.83742
                  }
                }
              }
              JOINT rRing1
              {
                OFFSET -8.82822 0.546677 1.51678
                CHANNELS 3 Zrotation Xrotation Yrotation
                JOINT rRing2
                {
                  OFFSET -2.60934 -0.819778 -0.0198488
                  CHANNELS 3 Zrotation Xrotation Yrotation
                  End Site
                  {
                    OFFSET -2.33842 -0.294052 0.168128
                  }
                }
              }
              JOINT rPinky1
              {
                OFFSET -8.27202 -0.0477905 -0.4584
                CHANNELS 3 Zrotation Xrotation Yrotation
                JOINT rPinky2
                {
                  OFFSET -1.82734 -0.647385 -0.700984
                  CHANNELS 3 Zrotation Xrotation Yrotation
                  End Site
                  {
                    OFFSET -1.69225 -0.51767 -0.607171
                  }
                }
              }
            }
          }
        }
      }
      JOINT lCollar
      {
        OFFSET 2.68224 19.2634 -4.8768
        CHANNELS 3 Zrotation Xrotation Yrotation
        JOINT lShldr
        {
          OFFSET 8.77824 -1.95073 1.46304
          CHANNELS 3 Zrotation Xrotation Yrotation
          JOINT lForeArm
          {
            OFFSET 28.1742 -1.7115 0.48768
            CHANNELS 3 Zrotation Xrotation Yrotation
            JOINT lHand
            {
              OFFSET 22.5879 0.773209 7.07136
              CHANNELS 3 Zrotation Xrotation Yrotation
              JOINT lThumb1
              {
                OFFSET 1.2192 -0.487915 3.41376
                CHANNELS 3 Zrotation Xrotation Yrotation
                JOINT lThumb2
                {
                  OFFSET 3.37035 -0.52449 3.41376
                  CHANNELS 3 Zrotation Xrotation Yrotation
                  End Site
                  {
                    OFFSET 1.78271 -1.18214 1.43049
                  }
                }
              }
              JOINT lIndex1
              {
                OFFSET 7.75947 0.938293 5.60832
                CHANNELS 3 Zrotation Xrotation Yrotation
                JOINT lIndex2
                {
                  OFFSET 2.54057 -0.884171 1.56538
                  CHANNELS 3 Zrotation Xrotation Yrotation
                  End Site
                  {
                    OFFSET 1.62519 -0.234802 1.16502
                  }
                }
              }
              JOINT lMid1
              {
                OFFSET 8.24714 1.18213 3.41376
                CHANNELS 3 Zrotation Xrotation Yrotation
                JOINT lMid2
                {
                  OFFSET 3.10165 -0.590103 1.0647
                  CHANNELS 3 Zrotation Xrotation Yrotation
                  End Site
                  {
                    OFFSET 2.48547 -0.328903 0.83742
                  }
                }
              }
              JOINT lRing1
              {
                OFFSET 8.82822 0.546677 1.51678
                CHANNELS 3 Zrotation Xrotation Yrotation
                JOINT lRing2
                {
                  OFFSET 2.60934 -0.819778 -0.0198488
                  CHANNELS 3 Zrotation Xrotation Yrotation
                  End Site
                  {
                    OFFSET 2.33842 -0.294052 0.168128
                  }
                }
              }
              JOINT lPinky1
              {
                OFFSET 8.27202 -0.0477905 -0.4584
                CHANNELS 3 Zrotation Xrotation Yrotation
                JOINT lPinky2
                {
                  OFFSET 1.82734 -0.647385 -0.700984
                  CHANNELS 3 Zrotation Xrotation Yrotation
                  End Site
                  {
                    OFFSET 1.69225 -0.51767 -0.607171
                  }
                }
              }
            }
          }
        }
      }
    }
  }
  JOINT rButtock
  {
    OFFSET -8.77824 4.35084 1.2192
    CHANNELS 3 Zrotation Xrotation Yrotation
    JOINT rThigh
    {
      OFFSET 0 -1.70687 -2.19456
      CHANNELS 3 Zrotation Xrotation Yrotation
      JOINT rShin
      {
        OFFSET 0 -36.8199 0.73152
        CHANNELS 3 Zrotation Xrotation Yrotation
        JOINT rFoot
        {
          OFFSET 0.73152 -45.1104 -5.12064
          CHANNELS 3 Zrotation Xrotation Yrotation
          End Site
          {
            OFFSET -1.1221 -3.69964 12.103
          }
        }
      }
    }
  }
  JOINT lButtock
  {
    OFFSET 8.77824 4.35084 1.2192
    CHANNELS 3 Zrotation Xrotation Yrotation
    JOINT lThigh
    {
      OFFSET 0 -1.70687 -2.19456
      CHANNELS 3 Zrotation Xrotation Yrotation
      JOINT lShin
      {
        OFFSET 0 -36.8199 0.73152
        CHANNELS 3 Zrotation Xrotation Yrotation
        JOINT lFoot
        {
          OFFSET -0.73152 -45.1104 -5.12064
          CHANNELS 3 Zrotation Xrotation Yrotation
          End Site
          {
            OFFSET 1.1221 -3.69964 12.103
          }
        }
      }
    }
  }
}
MOTION
Frames:	4
Frame Time:	0.03333
-4.0108999999999995 58.9514 -39.5718 -164.803994 33.426134 -177.352142 12.106844 13.88861 138.214562 -3.815357 1.780944 -118.871404 -10.473237 27.948157 -101.109559 34.284212 20.353801 100.211664 0.002923 -0.0 -0.001132 -0.002753 0.0 -0.000592 3.191724 -25.838885 -5.0746 -3.529237 -60.290442 -64.434129 -148.685599 61.351246 -158.09152 -4.031047 24.073313 1.71856 -168.725776 -6.405668 89.899191 102.414517 -63.600894 75.962906 -0.329019 0.529401 0.186841 167.812974 -46.629388 98.920123 -0.339924 0.981792 0.190401 -42.061572 58.561008 36.100137 -145.120443 0.212529 -179.195896 12.047687 35.303052 -4.998436 -5.649728 -12.860618 -5.301798 -146.668582 10.342384 -143.349066 157.744157 -21.565294 -165.366271 -134.448659 6.607569 162.445525 176.730213 14.046235 -115.752415 -156.939487 -35.919161 -139.195972 166.507992 -4.180337 -89.762343 0.895385 -50.876584 -10.851743 142.228171 -0.987978 -117.058667 119.427067 45.894827 -95.351287 0.571191 1.648365 -0.321806 163.247695 -4.711444 -143.344853 63.182485 72.737101 -80.604058 158.913968 -26.528035 -179.638471 -12.633012 42.933935 -10.533016 -14.741266 44.09395 -8.301683 179.968446 75.749066 0.025962 118.68477 77.436545 -16.239551 -41.687582 12.285313 100.923545 -66.056608 31.970187 -20.585424 -179.999289 75.749529 0.0 -141.77828 5.641464 85.640638 82.985474 5.062986 171.778828 7.317979 32.549974 87.09255
-3.9986 58.9615 -39.6675 -164.727937 33.72736 -177.323621 11.282779 15.421833 95.774502 -5.540616 -1.925568 -76.214731 10.331803 22.251736 90.51964 -31.341689 7.11387 -86.44535 -0.002454 -0.0 0.001047 0.003221 0.0 0.000487 4.239776 -44.742846 -8.646222 34.231461 -10.406997 -37.633423 -124.685364 -20.869665 136.270585 78.69051 -67.170639 66.024352 -173.983098 -11.651027 89.881516 -53.707802 -9.362439 10.478182 -169.306334 -47.434438 121.429447 6.901776 13.955979 -6.540273 -15.422825 32.961904 11.294921 -155.367091 16.749446 139.581206 -73.165383 -72.140912 -90.198844 -68.814726 -82.373976 -94.806243 -23.389371 -36.350018 -22.492783 15.477451 41.661845 8.107321 0.048847 0.292519 -0.063996 -95.357185 -65.783562 -18.623039 -25.36215 66.180875 -8.262707 13.879008 50.243942 -5.833635 121.364112 30.328937 -71.957567 106.546559 -5.735772 -59.948091 145.338526 -6.264455 -118.67778 -178.762147 -46.561361 -113.485204 82.839724 61.111261 -74.532671 -3.067125 1.059879 -0.300663 0.021094 -1.725106 0.542799 148.054379 -76.784144 171.066798 11.662584 -23.131037 11.069696 172.869438 78.322114 143.849052 -0.000894 -0.000605 0.00115 -11.192727 7.664135 -92.04934 -49.583202 -7.257527 8.39566 -164.759781 -33.884332 -46.729201 -179.999679 75.749167 -0.0 -139.369913 5.600053 -83.511512 -84.844999 6.064506 -26.954473 -16.597509 60.077912 108.99859
-3.9825 58.9297 -39.7554 -164.719763 33.919349 -177.241728 11.321888 15.39182 95.591508 -5.503522 -1.955255 -75.930253 0.275598 13.919619 14.484338 -3.104303 -23.231018 -12.222594 0.000767 -0.0 -0.003536 0.001859 0.0 0.000819 -142.97321 39.431271 147.389296 -22.390194 -12.310973 49.106335 -113.711548 -51.087794 -83.01842 3.669377 -0.63515 2.496087 -6.770536 6.520451 1.415626 6.977929 -7.053606 -0.874648 -27.172724 30.468386 19.890569 -75.477699 49.36022 55.564969 -0.569949 1.648505 0.322484 6.824842 -10.988434 -1.136683 -145.099749 -1.522856 -178.649319 -157.197296 45.539837 175.528802 -75.77745 -51.670634 -74.249534 -40.122894 -49.382566 -41.576698 159.220534 -48.724876 -170.568282 67.27824 -28.873393 52.427072 1.409668 -0.773293 61.691862 -152.213056 -42.60609 -135.45085 166.689508 -4.362776 -89.776368 -20.778677 -59.844444 -20.882463 77.667561 43.029472 -64.538472 82.377966 52.145098 -59.769156 0.570849 1.648523 -0.320764 170.977242 -28.29218 -144.245751 145.112588 -0.668944 178.919708 138.765104 -60.484536 160.892203 138.444698 -6.229797 135.658549 23.838782 -39.196456 25.57881 -179.99896 75.750247 -0.0 117.086911 77.328286 -0.0 -49.713591 27.144504 -125.650477 -155.148322 8.788391 -153.025343 -0.0 0.000379 0.000648 64.723129 -45.798082 71.298162 44.007707 69.935585 -64.004784 -150.767685 -37.809413 -17.484723
-3.963 58.8817 -39.8295 -164.658272 34.012337 -177.110466 11.409742 15.344915 95.288578 -5.521536 -1.984776 -75.593697 -7.449134 16.785723 -30.138291 23.074823 -16.897138 36.896873 0.003327 -0.0 -0.004267 0.004034 0.0 0.001294 -6.043059 25.599037 7.234746 -108.871638 -1.40113 160.133906 -173.806964 -2.366778 -132.967911 -7.45412 33.915328 2.470147 -161.434461 0.86116 89.126021 -136.123621 5.218287 66.579625 -117.901627 27.951005 99.679397 -164.09518 -11.651799 117.010147 -36.035884 51.723358 29.831773 -7.189978 26.202322 6.141241 -0.001023 0.036198 0.012247 -156.11586 -13.74448 173.484409 -87.575669 -50.209119 -85.929999 -147.062504 13.616497 -143.081293 82.877485 68.300251 -86.000606 -177.603844 -0.797594 -106.096293 -146.236599 -76.294094 -80.539624 -161.445363 -27.458361 -142.602053 -114.539031 -50.245611 -55.72159 36.560803 -1.097086 9.091225 2.68672 4.226652 -1.583607 -165.430207 -47.865074 -97.699739 160.827654 -7.141755 -143.31562 172.122199 -30.842577 -143.68532 73.163993 -72.142489 90.198119 149.830848 -27.2919 179.861327 152.502836 38.522923 147.799254 130.530846 -25.344038 127.313989 -0.000504 0.001013 -0.000504 -12.347378 6.509746 -180.0 -12.6587 -50.27715 -87.197648 130.858066 51.963192 142.874185 -179.902596 75.750067 -0.075074 -140.365636 6.226622 -4.199903 33.536062 76.609774 16.765141 5.104206 -18.815962 -56.662127
